<?xml version="1.0" standalone="no"?>
<!DOCTYPE svg PUBLIC "-//W3C//DTD SVG 20010904//EN"
 "http://www.w3.org/TR/2001/REC-SVG-20010904/DTD/svg10.dtd">
<svg version="1.0" xmlns="http://www.w3.org/2000/svg"
 width="1141.000000pt" height="1141.000000pt" viewBox="0 0 1141.000000 1141.000000"
 preserveAspectRatio="xMidYMid meet">
<metadata>
Created by potrace 1.11, written by Peter Selinger 2001-2013
</metadata>
<g transform="translate(0.000000,1141.000000) scale(0.100000,-0.100000)"
fill="#000000" stroke="none">
<path d="M5365 11404 c-22 -2 -98 -9 -170 -15 -1708 -142 -3318 -1104 -4258
-2544 -513 -788 -808 -1618 -913 -2575 -21 -199 -30 -719 -15 -935 140 -1993
1255 -3721 3009 -4664 652 -351 1383 -570 2162 -648 242 -24 815 -24 1050 0
729 76 1355 253 1985 562 116 57 266 136 335 175 1573 909 2620 2505 2824
4305 63 547 40 1168 -60 1690 -102 529 -259 1002 -489 1470 -784 1600 -2282
2745 -4035 3084 -374 72 -591 92 -1025 96 -198 2 -378 1 -400 -1z m730 -855
c989 -70 1807 -423 2435 -1049 167 -166 293 -319 337 -407 46 -92 43 -144 -11
-259 -107 -227 -454 -779 -613 -977 l-63 -78 0 -2058 0 -2058 26 -24 c77 -72
562 -706 705 -922 50 -75 79 -130 79 -147 0 -75 -110 -220 -354 -468 -633
-645 -1385 -1049 -2216 -1191 -282 -48 -388 -56 -775 -56 -395 1 -511 9 -815
61 -1154 195 -2104 864 -2757 1941 -107 178 -267 497 -338 678 -273 690 -401
1466 -381 2300 32 1356 415 2418 1204 3343 128 151 397 413 536 524 823 658
1797 933 3001 847z"/>
<path d="M5420 8989 c-95 -10 -333 -49 -339 -55 -2 -2 64 -324 147 -716 82
-392 268 -1274 413 -1960 145 -687 266 -1248 269 -1248 3 0 146 672 319 1493
173 820 350 1659 393 1862 44 204 80 388 81 409 l2 40 -120 42 c-138 49 -323
95 -475 119 -124 20 -559 29 -690 14z"/>
<path d="M3573 7846 c-87 -131 -214 -379 -276 -536 -129 -331 -209 -668 -254
-1080 -21 -189 -23 -715 -4 -920 64 -693 239 -1248 545 -1725 l51 -80 7 1965
c4 1081 7 2082 5 2225 l-2 260 -72 -109z"/>
<path d="M7167 6968 c-5 -21 -159 -746 -652 -3078 -91 -432 -168 -795 -172
-807 l-5 -23 -429 0 -429 0 -5 23 c-5 21 -144 677 -600 2837 -119 564 -220
1034 -225 1045 -6 13 -7 -24 -4 -100 2 -66 22 -1020 45 -2120 22 -1100 42
-2033 45 -2073 6 -72 6 -73 42 -88 141 -59 450 -125 681 -145 492 -41 966 49
1411 270 74 37 154 80 178 94 l42 27 1 118 c0 64 19 999 43 2077 23 1078 42
1961 40 1963 -1 2 -4 -7 -7 -20z"/>
</g>
</svg>
